<svg width="156" height="46" viewBox="0 0 156 46" fill="none" xmlns="http://www.w3.org/2000/svg">
<path d="M84.4524 6.13069C84.4482 5.31035 84.7623 4.52099 85.3275 3.93187C85.8927 3.34277 86.6637 3.0008 87.4755 2.97926C88.2999 2.98898 89.0876 3.32412 89.6706 3.91304C90.2536 4.50196 90.5853 5.29791 90.5948 6.13069C90.5755 6.95141 90.2375 7.73153 89.654 8.30287C89.0705 8.87419 88.2881 9.19094 87.4755 9.18482C86.6762 9.17701 85.9117 8.85274 85.3464 8.28165C84.7812 7.71058 84.4602 6.93828 84.4524 6.13069ZM108.652 12.7779C110.134 12.7779 111.082 13.6088 111.082 15.4203C110.915 17.1877 110.483 18.9193 109.8 20.5554C108.607 23.7966 107.37 27.502 106.036 31.7165C105.443 29.6803 104.295 26.4764 102.872 22.7338L101.635 19.3053C101.063 17.9197 100.708 16.4523 100.583 14.9562C100.544 14.681 100.563 14.4007 100.64 14.1336C100.716 13.8664 100.847 13.6187 101.025 13.4065C101.203 13.1944 101.423 13.0227 101.671 12.9027C101.919 12.7828 102.19 12.7173 102.465 12.7105V12.1042H92.0915V12.7105C93.5068 12.8453 94.6553 14.2076 96.1668 18.2648L102.769 35.9084C103.204 36.9087 103.405 37.9968 103.358 39.0884C103.31 40.1799 103.015 41.2459 102.495 42.2038C101.754 43.873 100.657 44.7039 99.3751 44.7039C97.7746 44.7039 96.9448 44.0077 96.9448 42.5781C96.9448 42.0166 98.0044 40.9087 98.0044 39.8458C98.0044 38.3487 96.8558 37.6675 95.5741 37.6675C95.1677 37.6533 94.7628 37.7262 94.3865 37.8818C94.01 38.0374 93.6705 38.2718 93.3903 38.5696C93.1104 38.8675 92.896 39.2219 92.7614 39.6098C92.6269 39.9974 92.5755 40.4096 92.6102 40.8188C92.6701 42.2348 93.2816 43.5692 94.3116 44.5312C95.3415 45.4933 96.7063 46.0048 98.1081 45.9541C98.791 45.9778 99.4718 45.8651 100.111 45.6223C100.751 45.3795 101.337 45.0114 101.835 44.5392C102.383 44.1275 103.072 42.6903 103.443 41.9941C103.719 41.4429 103.949 40.8696 104.132 40.2799C104.451 39.4941 104.636 38.8503 104.769 38.4311C104.903 38.0117 105.184 37.3156 105.51 36.2526L106.251 33.8948C108.222 27.6891 110.104 22.2696 111.89 17.6884C112.942 15.046 114.32 13.4741 115.009 13.1522C115.379 12.9488 115.78 12.8073 116.195 12.733V12.1266H108.652V12.7779ZM36.2906 34.6808C34.9569 34.4487 33.8158 33.2435 33.8158 30.6984V0.00748541L26.2583 1.6618V2.31304C27.54 2.17082 28.8293 3.33108 28.8293 5.78635V30.6984C28.8293 33.1088 27.54 34.4936 26.2583 34.6808L25.8952 34.7257C25.2394 34.773 24.5824 34.6548 23.9834 34.3812C22.8929 33.875 21.9878 33.0342 21.3976 31.9784L17.8929 26.2894C17.1554 25.0983 16.0559 24.1804 14.759 23.6729C13.4621 23.1656 12.0375 23.096 10.6983 23.4748L14.6401 19.0732C17.6039 15.7422 20.375 13.6088 22.9832 12.733V12.1266H14.3363V12.733C16.5592 13.6088 16.448 15.5551 13.8769 18.6092L8.33464 25.1442V0L0.769531 1.6618V2.31304C2.05137 2.31304 3.34062 3.60805 3.34062 5.87618V30.6984C3.34062 33.4306 2.10324 34.4936 0.769531 34.6808V35.2796H10.8094V34.6808C9.15709 34.4487 8.33464 33.1835 8.33464 30.6984V26.1173L10.4908 23.7443L15.7145 32.4052C16.9519 34.4861 18.0929 35.3169 19.9305 35.3169H37.3724V34.8454C37.3724 34.8454 36.8685 34.778 36.2906 34.6808ZM59.5564 34.7481V35.3545C59.5564 35.3545 54.4144 37.2184 52.8583 34.052C52.4436 33.2165 52.216 32.2989 52.1915 31.3646C51.4846 32.7455 50.412 33.9008 49.0933 34.7018C47.7744 35.5028 46.2613 35.9178 44.7227 35.9009C41.018 35.9009 38.3506 34.1418 38.3506 30.2942C38.3483 29.3197 38.6376 28.3674 39.1804 27.562C40.277 25.9001 41.5589 25.0169 43.9447 24.0887C45.1377 23.632 46.1676 23.3027 46.9085 23.0706C47.6495 22.8385 48.6942 22.6066 49.8722 22.3819L52.1915 21.8205V19.0433C52.1915 14.4172 50.2205 12.3063 47.4715 12.3063C45.3154 12.3063 44.0781 13.7435 44.0781 15.4128C44.0781 16.3336 44.7227 17.6585 44.7227 18.6541C44.7227 19.9491 43.5742 20.8998 41.9738 20.8998C40.3733 20.8998 39.5953 19.6498 39.5953 17.9804C39.5953 16.3111 40.4177 14.784 42.1145 13.489C43.7255 12.2265 45.7069 11.5418 47.7457 11.5428C54.1846 11.5428 56.9928 14.6268 57.0966 21.4014V31.5967V31.739C57.1188 32.4052 57.3039 35.1149 59.5564 34.7481ZM52.1915 22.5167C51.9173 22.6589 51.2801 22.891 50.2205 23.2651L48.1162 24.0511C47.5827 24.3057 47.1974 24.5153 46.4194 24.9345C45.8204 25.223 45.2761 25.6157 44.8115 26.0948C44.036 26.9784 43.5835 28.1038 43.5298 29.2836C43.5298 32.0159 45.0117 33.498 47.2346 33.498C48.458 33.4594 49.6285 32.9847 50.5391 32.1581C51.0722 31.7236 51.4987 31.1704 51.7852 30.5421C52.0718 29.9136 52.2108 29.2268 52.1915 28.5351V22.5167ZM137.067 23.7443C137.089 25.3412 136.796 26.9266 136.205 28.4082C135.615 29.8898 134.739 31.2383 133.629 32.3751C132.576 33.5025 131.306 34.4006 129.896 35.0144C128.487 35.6283 126.969 35.9449 125.434 35.9449C123.9 35.9449 122.381 35.6283 120.972 35.0144C119.563 34.4006 118.293 33.5025 117.239 32.3751C115.022 30.0651 113.799 26.9622 113.838 23.7443C113.815 22.158 114.103 20.583 114.687 19.1103C115.271 17.6377 116.138 16.2969 117.239 15.1658C118.285 14.0257 119.553 13.1161 120.963 12.4941C122.374 11.8721 123.896 11.551 125.434 11.551C126.973 11.551 128.495 11.8721 129.905 12.4941C131.316 13.1161 132.583 14.0257 133.629 15.1658C134.743 16.2895 135.621 17.6282 136.211 19.1019C136.802 20.5757 137.093 22.1545 137.067 23.7443ZM129.576 15.5101C128.665 13.7136 127.472 12.6656 126.079 12.3812C123.241 11.8048 120.737 14.7466 119.803 19.4326C119.4 21.5329 119.303 23.6814 119.514 25.8102C119.715 27.955 120.3 30.045 121.241 31.9784C122.152 33.7675 123.345 34.8155 124.745 35.1C127.576 35.6763 130.154 32.6072 131.095 27.8764C131.888 23.8865 131.473 19.0732 129.576 15.5101ZM90.1355 30.6984V12.1266H74.005V12.6881C76.1611 13.01 77.1837 14.6493 76.2279 17.3142C71.1598 31.1624 71.4561 30.5412 71.1598 31.6491C70.8411 30.5861 70.1076 27.9662 68.9369 24.68C67.7662 21.3939 66.966 19.2155 66.6474 18.2424C65.4099 14.4023 65.825 13.0025 67.8403 12.733V12.1266H57.3781V12.733C58.9415 13.0549 60.3418 14.8589 61.4608 18.1002L63.0612 22.3145C64.8246 26.8657 66.8994 33.1536 67.5884 35.2796H71.0634C72.1824 31.9935 76.6724 18.8112 77.2726 17.5013C77.7754 16.2046 78.5315 15.0234 79.4955 14.028C80.3341 13.2137 81.4444 12.7463 82.6074 12.718C82.9369 12.6936 83.2678 12.7396 83.5784 12.8531C83.889 12.9666 84.1725 13.1451 84.4103 13.3768C84.648 13.6085 84.8347 13.8883 84.9582 14.1978C85.0816 14.5074 85.139 14.8398 85.1267 15.1733V17.2543V17.3142V30.6984C85.1267 33.2884 83.8893 34.4936 82.6 34.6808V35.2796H92.5954V34.6808C91.2321 34.4936 90.1355 33.2884 90.1355 30.6984Z" fill="#232426"/>
<path d="M153.176 0H135.646V12.1266H153.176L149.716 6.06332L153.176 0Z" fill="#232426"/>
<path d="M154.138 11.2699V12.1232H154.049V11.2699H153.701V11.1875H154.442V11.2699H154.138Z" fill="#232426"/>
<path d="M155.005 12.1232L154.686 11.3148V12.1232H154.604V11.1875H154.723L155.042 12.0034L155.36 11.1875H155.479V12.1232H155.39V11.3148L155.079 12.1232H155.005Z" fill="#232426"/>
</svg>
