<svg width="211" height="42" viewBox="0 0 211 42" fill="none" xmlns="http://www.w3.org/2000/svg">
<g clip-path="url(#clip0_8041_7370)">
<path fill-rule="evenodd" clip-rule="evenodd" d="M42.2592 20.9782C42.2592 32.5557 32.8739 41.9408 21.2966 41.9408C9.71926 41.9408 0.333984 32.5557 0.333984 20.9782C0.333984 9.40091 9.71926 0.015625 21.2966 0.015625C32.8739 0.015625 42.2592 9.40091 42.2592 20.9782ZM12.9078 29.2718H23.2973C23.4568 29.2718 23.5366 29.0729 23.4568 28.9337L15.0614 18.5328C14.9417 18.3937 14.7424 18.4533 14.7025 18.6124L12.6884 29.0132C12.6684 29.1525 12.7682 29.2718 12.9078 29.2718ZM12.7125 13.572H23.102C23.2416 13.572 23.3413 13.6913 23.3214 13.8305L21.3072 24.2314C21.2673 24.3906 21.068 24.4502 20.9483 24.3111L12.5529 13.8902C12.4532 13.7708 12.533 13.572 12.7125 13.572ZM24.1583 13.7311C24.1782 13.6515 24.258 13.572 24.3577 13.572H31.8358C31.9555 13.572 32.0752 13.6913 32.0552 13.8106L30.6592 20.5722C30.6394 20.6716 30.5596 20.7313 30.4599 20.7313H30.2406C26.5514 20.7313 23.6199 17.3305 24.1583 13.7311Z" fill="#3901F1"/>
<path d="M57.7307 12.1153H65.1977C65.5477 12.1153 65.7811 12.3098 65.7034 12.6987L65.2756 15.1098C66.7534 12.9709 68.8925 11.6875 71.0703 11.6875C72.1592 11.6875 73.326 12.1153 73.9483 12.6987C74.2983 13.0487 74.2983 13.2431 74.0649 13.5932L71.8871 16.6655C71.6148 17.0544 71.4203 17.0155 70.9925 16.821C70.5648 16.6266 70.0203 16.471 69.4369 16.471C66.8313 16.471 64.6533 18.1823 63.6422 23.3548L62.1254 31.1719C62.0087 31.6774 61.6198 31.7942 61.4253 31.7942H57.4584C57.1473 31.7942 56.8752 31.5219 56.9529 31.1719L59.9085 16.16L57.4196 12.6598C57.2252 12.3875 57.3807 12.1153 57.7307 12.1153Z" fill="#3901F1"/>
<path d="M72.0399 21.7992C73.0512 15.6932 77.5236 11.6875 83.3573 11.6875C89.2686 11.6875 92.0688 16.3933 91.2132 21.5269C91.0188 22.8492 90.552 23.8993 89.4631 23.8993H76.8624C76.9792 26.7771 78.9625 28.1384 81.6071 28.1384C83.3573 28.1384 84.9906 27.4773 86.2351 26.6605C86.5463 26.4271 86.8963 26.3105 87.1297 26.6605L88.5686 28.9162C88.802 29.2662 88.6852 29.4996 88.3352 29.8107C86.4685 31.5219 83.435 32.2997 80.6737 32.2997C74.4512 32.2997 71.0676 27.7105 72.0399 21.7992ZM86.7019 20.4769C86.8963 17.4044 84.7962 16.121 82.7739 16.121C80.1293 16.121 78.0681 17.9101 77.2902 20.4769H86.7019Z" fill="#3901F1"/>
<path d="M110.037 31.3287L114.549 8.30522L112.332 5.34952C112.215 5.15506 112.371 4.88281 112.643 4.88281H119.565C119.954 4.88281 120.149 5.11616 120.071 5.46618L118.049 15.6167C119.604 13.2833 121.938 11.6887 124.66 11.6887C129.016 11.6887 131.505 15.4222 130.572 20.0114L128.316 31.1731C128.238 31.6009 127.888 31.7954 127.616 31.7954H123.532C123.143 31.7954 122.949 31.562 123.027 31.1731L125.049 21.1003C125.594 18.378 124.855 16.7056 123.182 16.7056C120.071 16.7056 117.621 20.2059 116.571 25.1451L115.249 31.3287C115.21 31.562 115.015 31.7954 114.743 31.7954H110.426C110.193 31.7954 109.998 31.562 110.037 31.3287Z" fill="#3901F1"/>
<path d="M131.973 22.0325C132.984 15.5377 137.573 11.6875 142.94 11.6875C145.779 11.6875 147.996 12.9709 148.851 15.1098L149.319 12.7376C149.396 12.3098 149.708 12.1153 150.058 12.1153H153.829C154.258 12.1153 154.413 12.3875 154.335 12.7376L150.719 31.2108C150.64 31.5608 150.408 31.7942 149.979 31.7942H146.169C145.819 31.7942 145.624 31.5997 145.701 31.2108L146.051 29.3051C144.262 31.3274 142.046 32.3386 139.634 32.3386C134.151 32.3386 131.078 27.7884 131.973 22.0325ZM141.19 27.6328C144.34 27.6328 146.674 24.9882 147.14 21.8769C147.606 18.7656 145.935 16.4321 143.017 16.4321C139.907 16.4321 137.651 18.9601 137.145 21.9158C136.64 24.9104 138.157 27.6328 141.19 27.6328Z" fill="#3901F1"/>
<path d="M153.168 31.1719L156.825 12.6209C156.902 12.3098 157.058 12.1153 157.291 12.1153H161.413C161.764 12.1153 161.997 12.3098 161.92 12.6987L161.491 15.1098C162.97 12.9709 165.109 11.6875 167.286 11.6875C168.375 11.6875 169.541 12.1153 170.164 12.6987C170.514 13.0487 170.514 13.2431 170.281 13.5932L168.104 16.6655C167.831 17.0544 167.636 17.0155 167.209 16.821C166.781 16.6266 166.236 16.471 165.652 16.471C163.047 16.471 160.87 18.1823 159.858 23.3548L158.341 31.1719C158.225 31.6774 157.836 31.7942 157.641 31.7942H153.674C153.363 31.7942 153.091 31.5219 153.168 31.1719Z" fill="#3901F1"/>
<path d="M166.743 37.4334C166.509 37.2389 166.509 36.9277 166.665 36.6555L168.493 33.7776C168.688 33.4665 168.999 33.3886 169.232 33.5831C171.022 34.7109 172.772 35.4109 174.911 35.4109C178.643 35.4109 181.755 33.8942 182.845 28.8773C180.782 30.8219 178.877 31.7553 175.999 31.7553C170.359 31.7553 167.404 27.0105 168.338 21.7213C169.388 15.7321 173.861 11.6875 179.5 11.6875C182.611 11.6875 184.75 13.4376 185.411 14.8766L185.877 12.7376C185.955 12.3098 186.227 12.1153 186.539 12.1153H190.35C190.739 12.1153 190.934 12.3486 190.855 12.7376L187.666 28.994C186.266 36.0722 181.366 39.7668 174.716 39.7668C171.916 39.7668 168.765 39.0668 166.743 37.4334ZM177.477 27.205C180.627 27.205 182.961 24.6771 183.427 21.6824C183.895 18.6878 182.222 16.4321 179.305 16.4321C176.193 16.4321 173.938 18.8823 173.432 21.7213C172.927 24.5993 174.443 27.205 177.477 27.205Z" fill="#3901F1"/>
<path d="M191.009 21.7992C192.022 15.6932 196.493 11.6875 202.327 11.6875C208.239 11.6875 211.039 16.3933 210.184 21.5269C209.989 22.8492 209.522 23.8993 208.434 23.8993H195.832C195.949 26.7771 197.932 28.1384 200.577 28.1384C202.327 28.1384 203.961 27.4773 205.205 26.6605C205.516 26.4271 205.866 26.3105 206.1 26.6605L207.539 28.9162C207.772 29.2662 207.655 29.4996 207.305 29.8107C205.439 31.5219 202.405 32.2997 199.643 32.2997C193.422 32.2997 190.038 27.7105 191.009 21.7992ZM205.672 20.4769C205.866 17.4044 203.766 16.121 201.743 16.121C199.1 16.121 197.038 17.9101 196.261 20.4769H205.672Z" fill="#3901F1"/>
<path d="M101.34 32.3386C103.945 32.3386 106.512 31.5997 108.846 29.3828C109.196 29.0717 109.235 28.6439 109.001 28.4107L106.862 26.0382C106.668 25.805 106.357 25.805 106.084 25.9993C105.19 26.6605 103.751 27.4384 102.04 27.4384C98.9674 27.4384 97.2561 25.0271 97.6451 21.9936C98.034 18.999 100.406 16.5878 103.401 16.5878C105.034 16.5878 106.084 17.171 107.251 18.3378C107.562 18.649 107.757 18.649 108.107 18.3767L110.868 16.0044C111.14 15.771 111.218 15.4987 111.024 15.1877C109.351 12.8153 106.746 11.6875 103.868 11.6875C98.0729 11.6875 93.3671 16.0044 92.5893 21.7213C91.7337 27.9439 95.8561 32.3386 101.34 32.3386Z" fill="#3901F1"/>
</g>
<defs>
<clipPath id="clip0_8041_7370">
<rect width="210" height="42" fill="white" transform="translate(0.333984)"/>
</clipPath>
</defs>
</svg>
