<svg width="182" height="54" viewBox="0 0 182 54" fill="none" xmlns="http://www.w3.org/2000/svg">
<g clip-path="url(#clip0_8041_7341)">
<path d="M15.1649 10.6683C14.9243 11.4442 14.6696 12.2201 14.4079 12.9889C14.132 13.8288 14.1249 13.836 13.3113 13.5726C12.3846 13.2736 11.4436 13.0885 10.4674 13.117C10.0358 13.1312 9.61841 13.1811 9.21516 13.3377C7.8427 13.8858 7.53849 15.2952 8.61383 16.3132C8.9534 16.6264 9.36373 16.8613 9.75283 17.1033C10.5523 17.5873 11.3375 18.0714 12.045 18.6836C14.8536 21.1252 14.8677 25.1684 12.0662 27.6598C10.5876 28.9767 8.79776 29.5106 6.87348 29.7028C6.49146 29.7384 6.10236 29.7099 5.72033 29.7099C4.00121 29.7598 2.33162 29.5035 0.739843 28.8201C-0.116179 28.45 -0.109104 28.4357 0.202177 27.5175C0.449786 26.7843 0.697396 26.044 0.980378 25.325C1.31996 24.4281 1.16432 24.2501 2.23257 24.7342C3.32913 25.2254 4.48936 25.5457 5.70618 25.5528C6.16603 25.5528 6.63295 25.5457 7.07865 25.3748C8.42281 24.8623 8.80484 23.4956 7.90637 22.3638C7.46775 21.8085 6.86641 21.4455 6.2863 21.0611C5.71326 20.6696 5.11192 20.3066 4.57425 19.8652C1.58172 17.3667 1.63831 13.2878 4.68745 10.8249C5.23219 10.3835 5.81938 10.0134 6.47024 9.75001C9.11612 8.65378 11.8115 8.66801 14.5282 9.44392C15.4266 9.70018 15.4408 9.79272 15.1649 10.6683Z" fill="black"/>
<path d="M34.8893 12.5424C35.2006 14.0301 35.0237 15.5036 34.7761 16.9487C34.0899 20.8923 33.3187 24.8216 32.5759 28.7509C32.4061 29.6692 32.3849 29.6692 31.4723 29.6835C30.8214 29.6906 30.1635 29.6835 29.5055 29.6835C28.9254 29.6835 28.3453 29.6906 27.7652 29.6835C26.7252 29.6763 26.7182 29.6692 26.895 28.6798C27.4964 25.3555 28.1048 22.0312 28.7132 18.7069C28.9042 17.632 29.0881 16.5572 29.0457 15.4609C28.9679 13.7098 27.6874 12.9837 26.1522 13.8308C25.4589 14.2081 24.9495 14.7918 24.5109 15.4396C23.57 16.8134 23.1102 18.3724 22.8059 19.9882C22.2541 22.8854 21.7094 25.7897 21.1576 28.694C20.9807 29.6194 20.9807 29.6336 20.061 29.6407C18.7452 29.6479 17.4293 29.655 16.1205 29.6336C15.4343 29.6194 15.406 29.5838 15.5404 28.872C16.262 25.0138 16.9907 21.1556 17.7193 17.3046C18.6956 12.1865 19.679 7.07549 20.6624 1.9645C20.8746 0.854032 20.8746 0.846914 21.9711 0.846914C23.1314 0.846914 24.2916 0.839795 25.4448 0.846914C26.4989 0.86115 26.5059 0.868269 26.322 1.85772C25.7207 4.98981 25.1193 8.11478 24.5251 11.2469C24.4968 11.3892 24.4402 11.6384 24.4968 11.6811C24.7161 11.8235 24.801 11.5672 24.9142 11.4462C26.4635 9.84454 28.2958 8.89068 30.5667 8.93339C32.873 8.9761 34.4153 10.2859 34.8893 12.5424Z" fill="black"/>
<path d="M55.2471 15.1911C54.7873 11.8882 52.4314 9.41812 49.2479 8.95543C46.1775 8.50697 43.3831 9.23305 41.0343 11.2974C37.5183 14.3868 36.16 18.43 36.5349 23.0142C36.825 26.6375 39.1737 29.1503 42.4846 29.6699C46.0997 30.2323 49.2337 29.193 51.7523 26.5165C54.2355 23.8755 55.2613 20.6296 55.3815 16.7501C55.3603 16.4297 55.332 15.8033 55.2471 15.1911ZM49.538 17.1273C49.4743 19.1205 49.0074 21.1065 48.0523 22.9644C47.6773 23.6905 47.2104 24.3596 46.5454 24.8579C45.0102 26.0324 43.185 25.5057 42.5271 23.6833C42.3785 23.2847 42.2865 22.8576 42.2582 22.4376C42.1167 19.932 42.6756 17.5829 43.9137 15.3976C44.2816 14.7498 44.7485 14.1803 45.371 13.7675C46.9982 12.6855 48.8942 13.4044 49.3894 15.2979C49.545 15.8603 49.545 16.444 49.538 17.1273Z" fill="black"/>
<path d="M74.7282 11.8927C73.9146 10.2982 72.62 9.37277 70.8372 9.10228C68.9483 8.81754 67.3353 9.40836 65.8567 10.5259C65.2695 10.9673 64.746 11.4869 64.2862 12.0706C64.1871 12.1916 64.0598 12.3554 63.9183 12.2842C63.8475 12.2486 63.8546 11.9995 63.8688 11.85C63.9112 11.3446 63.982 10.8463 64.0315 10.3409C64.1093 9.4226 64.0952 9.40125 63.2321 9.37989C62.6873 9.36566 62.1497 9.37989 61.6049 9.37989C61.0248 9.37989 60.4447 9.41548 59.8716 9.37277C59.2491 9.31583 59.0651 9.62192 59.0085 10.17C58.9024 11.1737 58.7892 12.1845 58.6265 13.1811C57.8129 18.1996 56.7659 23.1824 55.8321 28.1866C55.2873 31.0909 54.7355 33.9881 54.1696 36.8853C54.0847 37.348 54.1059 37.6398 54.686 37.6327C56.1575 37.6114 57.629 37.6114 59.0934 37.6327C59.5321 37.6398 59.7372 37.4619 59.7938 37.0561C59.8292 36.8212 59.8787 36.5934 59.9212 36.3656C60.3103 34.1874 60.7064 32.0092 61.0885 29.8239C61.1734 29.3398 61.3219 29.112 61.8384 29.411C62.2133 29.6174 62.6378 29.6886 63.0623 29.7527C66.7057 30.3008 69.677 29.0266 72.054 26.2931C74.2967 23.7021 75.3366 20.6056 75.6055 17.2315C75.7469 15.3878 75.5913 13.5655 74.7282 11.8927ZM67.8305 23.1255C67.4202 23.7946 66.9179 24.3854 66.2812 24.841C65.1351 25.6667 63.9324 25.7237 62.6802 25.083C62.2841 24.8766 62.1143 24.599 62.2063 24.1434C62.5954 22.0862 62.8147 19.9934 63.3877 17.9718C63.6919 16.8827 64.173 15.8647 64.9017 14.9821C65.3474 14.4268 65.8779 13.9855 66.543 13.7221C67.88 13.2025 69.019 13.7435 69.486 15.1173C69.6911 15.7152 69.6911 16.3345 69.6982 17.1176C69.5992 19.1748 69.012 21.2391 67.8305 23.1255Z" fill="black"/>
<path d="M85.0857 10.3833C84.2226 14.9249 83.3595 19.4664 82.4964 24.0008C82.1851 25.6451 81.8526 27.2824 81.5767 28.9267C81.4847 29.5175 81.23 29.7097 80.6641 29.6813C79.9707 29.6528 79.2774 29.6741 78.5771 29.6741C77.8767 29.6741 77.1904 29.6599 76.4901 29.6813C75.9736 29.6955 75.8038 29.4748 75.9029 28.9694C76.0797 28.0583 76.2354 27.1329 76.4052 26.2217C77.3956 20.9185 78.3931 15.6082 79.3906 10.305C79.5604 9.38676 79.5675 9.37964 80.5013 9.37253C81.7748 9.36541 83.0482 9.36541 84.3216 9.37253C85.2696 9.38676 85.2767 9.39388 85.0857 10.3833Z" fill="black"/>
<path d="M86.5047 3.79549C86.5047 5.71033 85.0332 7.28349 83.2079 7.29061C81.6162 7.30485 80.4489 5.98795 80.463 4.20123C80.4772 2.33622 81.977 0.784412 83.7244 0.812886C85.2808 0.848478 86.4976 2.15114 86.5047 3.79549Z" fill="black"/>
<path d="M98.222 13.6258C97.7976 13.5831 97.3731 13.6187 96.8637 13.6187C96.3402 13.6899 95.6045 13.3624 95.1517 13.7539C94.706 14.1455 94.7909 14.9 94.6777 15.5051C93.857 19.8544 93.0505 24.2037 92.2299 28.5602C92.0318 29.635 92.0247 29.635 90.9069 29.6493C89.6335 29.6493 88.3601 29.6777 87.0796 29.6706C86.3651 29.6635 86.3439 29.635 86.4712 28.9374C87.0725 25.6487 87.688 22.3672 88.2964 19.0785C88.5723 17.5907 88.8624 16.103 89.1242 14.6153C89.2869 13.6899 89.2727 13.6899 88.4096 13.6685C87.2824 13.6353 86.8226 13.0421 87.0301 11.8889C87.1504 11.2412 87.2919 10.5934 87.405 9.94561C87.4758 9.53274 87.681 9.34767 88.1054 9.36902C88.5723 9.3975 89.0393 9.34767 89.4991 9.38326C90.0014 9.41885 90.1783 9.16971 90.2419 8.71413C90.4188 7.39723 90.7867 6.13016 91.3456 4.92715C93.4326 0.399867 97.6066 -0.546877 101.505 0.243263C102.049 0.357157 102.191 0.6063 102.035 1.1473C101.731 2.18658 101.469 3.24722 101.222 4.30786C101.123 4.74208 100.932 4.89156 100.493 4.75631C100.238 4.67801 99.9624 4.64954 99.6935 4.62106C98.7951 4.50717 98.0027 4.76343 97.3519 5.38985C96.3756 6.32948 96.036 7.55384 95.8521 8.84226C95.8025 9.2053 95.9936 9.33343 96.319 9.33343C97.2104 9.34055 98.1018 9.3619 98.9861 9.34055C99.5167 9.32631 99.6652 9.54698 99.5662 10.0453C99.3823 10.9991 99.2125 11.953 99.0568 12.9069C98.979 13.4123 98.7668 13.6756 98.222 13.6258Z" fill="black"/>
<path d="M118.741 10.2766C117.418 13.1239 116.088 15.9784 114.758 18.8257C113.294 21.9578 111.914 25.1326 110.223 28.1437C108.773 30.7276 107.174 33.1977 105.052 35.2834C103.616 36.6928 101.96 37.7392 100.057 38.3657C99.3426 38.6006 99.3284 38.5935 99.0808 37.8603C98.7059 36.7569 98.3522 35.6464 98.0055 34.536C97.7791 33.817 97.7791 33.7957 98.4583 33.5109C99.6114 33.034 100.673 32.4218 101.642 31.6317C102.13 31.2402 102.562 30.7917 102.972 30.329C103.892 29.2897 104.245 28.2077 103.948 26.7271C102.873 21.4311 101.953 16.1065 100.97 10.7962C100.941 10.6396 100.927 10.483 100.899 10.3335C100.758 9.47218 100.758 9.45795 101.677 9.44371C102.371 9.43659 103.064 9.44371 103.764 9.44371V9.38676H105.731C106.601 9.401 106.615 9.401 106.707 10.2908C106.877 11.9138 107.033 13.5439 107.202 15.1669C107.45 17.6441 107.705 20.1142 107.966 22.5913C107.981 22.7124 107.875 22.933 108.115 22.933C108.193 22.933 108.292 22.7978 108.334 22.6981C108.433 22.4917 108.504 22.2639 108.575 22.0432C109.827 18.0783 111.433 14.2415 112.876 10.3477C113.237 9.37253 113.258 9.37253 114.284 9.37253C115.593 9.36541 116.909 9.36541 118.225 9.37253C119.137 9.38676 119.151 9.401 118.741 10.2766Z" fill="black"/>
<path d="M123.366 42.8086C122.057 42.111 120.748 42.2747 119.517 43.0577C119.22 43.2428 118.965 43.4848 118.689 43.6984C118.604 43.7624 118.484 43.8692 118.413 43.8478C118.293 43.8194 118.335 43.6699 118.335 43.5631C118.343 43.2214 118.71 42.6947 118.109 42.6092C117.628 42.5452 117.656 43.136 117.501 43.4706C117.472 43.5418 117.465 43.6201 117.451 43.6984C116.928 45.6488 116.404 47.5992 115.888 49.5568C115.562 50.7954 115.237 52.034 114.918 53.2797C114.855 53.5288 114.756 53.8563 115.109 53.9702C115.449 54.0769 115.583 53.7922 115.668 53.5288C115.746 53.3082 115.803 53.0804 115.859 52.8526C116.114 51.913 116.355 50.9733 116.631 50.0408C116.687 49.8415 116.645 49.5212 116.899 49.4785C117.09 49.4429 117.154 49.7276 117.267 49.8771C118.413 51.4147 119.991 51.8774 121.781 51.2154C123.804 50.4608 125.17 48.3894 125.162 46.1044C125.155 44.6807 124.667 43.4919 123.366 42.8086ZM121.158 50.5676C118.944 51.1584 117.069 49.5425 117.373 47.2504C117.621 45.3427 118.725 44.0472 120.5 43.4065C122.594 42.6448 124.25 43.9404 124.229 46.2539C124.214 48.3467 122.969 50.0907 121.158 50.5676Z" fill="black"/>
<path d="M133.113 42.7464C132.526 42.5043 131.91 42.4901 131.295 42.4688C130.679 42.5043 130.064 42.5186 129.47 42.725C129.13 42.846 128.578 42.8318 128.713 43.3585C128.84 43.8355 129.307 43.5579 129.611 43.4796C130.566 43.2518 131.514 43.145 132.469 43.4084C133.516 43.7073 133.99 44.3907 133.927 45.4798C133.884 46.27 133.792 46.3554 133.021 46.1917C132.229 46.0279 131.429 45.8927 130.616 45.8927C129.357 45.8927 128.14 46.1276 127.27 47.1598C126.597 47.9499 126.357 48.8682 126.725 49.8719C127.079 50.8542 127.878 51.3027 128.854 51.4308C129.873 51.566 130.849 51.3952 131.719 50.783C131.967 50.5979 132.208 50.4057 132.455 50.2207C132.653 50.0783 132.717 50.1922 132.689 50.3773C132.667 50.5339 132.597 50.6762 132.583 50.8329C132.554 51.0393 132.632 51.2315 132.851 51.2813C133.057 51.3311 133.212 51.1959 133.318 51.0179C133.354 50.9539 133.396 50.8827 133.417 50.8115C133.863 49.0461 134.379 47.295 134.747 45.5154C134.995 44.2911 134.273 43.2233 133.113 42.7464ZM133.439 47.6509C133.049 49.4519 130.991 50.9254 129.166 50.6762C128.274 50.5624 127.652 50.0427 127.489 49.2953C127.333 48.5407 127.722 47.6652 128.437 47.1882C129.031 46.7825 129.717 46.6472 131.012 46.6899C131.585 46.7327 132.278 46.7754 132.965 46.9249C133.396 47.0174 133.531 47.2025 133.439 47.6509Z" fill="black"/>
<path d="M138.083 15.0169C137.785 12.7319 136.894 10.7459 134.644 9.87031C131.376 8.60324 128.206 8.93781 125.278 10.9808C124.924 11.2299 124.613 11.835 124.238 11.6641C123.976 11.5431 124.308 10.8882 124.337 10.4683C124.379 9.67812 123.714 9.25813 123.014 9.62117C122.653 9.81337 122.419 10.1195 122.32 10.511C122.228 10.8882 122.158 11.2726 122.087 11.6499C120.877 17.9853 119.667 24.3135 118.458 30.6417C118.083 32.5851 117.722 34.5355 117.347 36.4788C117.248 36.9913 117.29 37.4184 117.828 37.632C118.281 37.8099 118.811 37.575 119.13 37.1123C119.328 36.8063 119.363 36.4575 119.434 36.1158C119.639 35.0907 119.823 34.0586 120.014 33.0264C120.333 31.3465 120.644 29.6665 120.962 27.9937C121.005 27.7659 120.99 27.4456 121.203 27.3673C121.45 27.2747 121.542 27.6022 121.67 27.7588C122.582 28.855 123.764 29.4672 125.129 29.7377C128.489 30.3926 133.371 29.6096 136.08 24.5769C137.425 22.0783 138.047 19.3662 138.153 16.5046C138.132 16.0277 138.153 15.5152 138.083 15.0169ZM134.347 23.7725C132.685 27.1751 129.154 28.791 125.511 27.8157C123.558 27.289 122.582 25.8867 122.306 23.9505C121.967 21.5445 122.434 19.231 123.169 16.9531C123.495 15.9494 123.955 15.0098 124.542 14.1342C126.763 10.7886 130.463 10.5679 133.06 11.4079C134.446 11.8563 135.316 12.8529 135.734 14.2481C135.974 15.0383 136.038 15.8498 136.024 16.6755C135.882 19.1384 135.437 21.5373 134.347 23.7725Z" fill="#D09D2A"/>
<path d="M143.039 42.8695C143.053 43.14 142.855 43.2824 142.614 43.3536C142.508 43.3892 142.395 43.4177 142.282 43.439C140.258 43.802 139.006 45.0905 138.292 46.9341C137.931 47.8666 137.712 48.8632 137.429 49.8242C137.344 50.1232 137.273 50.4293 137.188 50.7282C137.096 51.0343 136.955 51.3618 136.573 51.2479C136.212 51.1411 136.339 50.8136 136.41 50.5574C137.047 48.1158 137.69 45.6813 138.334 43.2468C138.362 43.1329 138.398 43.019 138.454 42.9194C138.561 42.7129 138.695 42.4923 138.978 42.5848C139.261 42.6845 139.226 42.9336 139.197 43.1685C139.148 43.6241 138.858 44.0298 138.935 44.5068C139.388 44.343 139.593 43.8946 139.954 43.617C140.697 43.0475 141.461 42.5207 142.437 42.4851C142.727 42.478 143.01 42.5136 143.039 42.8695Z" fill="black"/>
<path d="M139.457 28.3471C139.684 27.1299 139.945 25.7204 140.214 24.311C141.601 17.0645 142.987 9.81799 144.381 2.5786C144.473 2.08032 144.544 1.57491 144.975 1.21899C145.301 0.955613 145.669 0.863074 146.058 1.0268C146.482 1.20476 146.567 1.57491 146.496 1.9949C146.235 3.44704 145.973 4.89919 145.697 6.34422C144.325 13.5124 142.945 20.6806 141.565 27.8488C141.509 28.1193 141.452 28.3827 141.389 28.6461C141.318 28.9166 141.176 29.1444 140.95 29.3152C140.632 29.5644 140.285 29.6996 139.875 29.5145C139.443 29.3223 139.386 28.9593 139.457 28.3471Z" fill="#D09D2A"/>
<path d="M149.356 42.9678C149.363 43.1956 149.186 43.3166 148.988 43.3308C148.563 43.3522 148.139 43.3379 147.714 43.3379C146.101 43.4162 146.392 43.039 145.918 44.783C145.606 45.9433 145.302 47.1036 144.991 48.2639C144.962 48.3777 144.913 48.4845 144.892 48.5984C144.524 50.1787 144.941 50.677 146.554 50.5773C146.667 50.5631 146.781 50.5417 146.901 50.5417C147.064 50.5417 147.205 50.5916 147.269 50.7553C147.368 50.9973 147.205 51.1397 147.028 51.2109C146.158 51.5525 145.281 51.5597 144.496 50.9973C143.802 50.499 143.774 49.7374 143.958 48.9899C144.333 47.4452 144.757 45.9148 145.161 44.3772C145.231 44.121 145.373 43.8576 145.288 43.5871C145.182 43.2312 144.821 43.4234 144.588 43.3166C144.439 43.2454 144.326 43.16 144.319 42.982C144.312 42.7471 144.474 42.6475 144.672 42.5976C144.786 42.5763 144.906 42.5549 145.019 42.5692C145.578 42.6475 145.755 42.2987 145.854 41.836C145.932 41.4587 146.045 41.0885 146.151 40.7113C146.222 40.4906 146.278 40.2628 146.384 40.0564C146.469 39.8855 146.618 39.736 146.844 39.8072C147.064 39.8713 147.141 40.0635 147.092 40.2628C146.972 40.7967 146.816 41.3092 146.689 41.8431C146.526 42.5336 146.533 42.5478 147.248 42.562C147.828 42.5834 148.408 42.5763 148.981 42.5976C149.186 42.5976 149.356 42.7471 149.356 42.9678Z" fill="black"/>
<path d="M158.452 45.3157C158.225 47.2092 157.574 49.0172 157.093 50.8609C157.023 51.1314 156.839 51.3734 156.506 51.2453C156.23 51.1314 156.28 50.8751 156.343 50.6402C156.69 49.2877 157.037 47.9281 157.398 46.5756C157.532 46.0845 157.61 45.5862 157.581 45.0808C157.525 44.013 156.924 43.3581 155.869 43.2086C154.928 43.0734 154.115 43.3724 153.386 43.9489C152.566 44.6038 152.063 45.4652 151.794 46.4617C151.455 47.7003 151.137 48.9389 150.804 50.1846C150.747 50.4053 150.691 50.6331 150.606 50.8538C150.507 51.1243 150.344 51.3592 150.012 51.2382C149.722 51.1314 149.778 50.8822 149.835 50.6473C149.955 50.1918 150.068 49.7433 150.189 49.2948C150.677 47.4512 151.158 45.6075 151.646 43.771C151.702 43.5432 151.752 43.3154 151.83 43.0947C151.915 42.8314 152.056 42.5253 152.367 42.5822C152.813 42.6605 152.665 43.0378 152.643 43.1944C152.573 43.4791 152.459 43.6927 152.587 43.7639C152.778 43.8635 152.891 43.6286 153.018 43.5147C153.952 42.6534 154.999 42.1765 156.301 42.4541C157.737 42.7673 158.636 43.8493 158.452 45.3157Z" fill="black"/>
<path d="M162.188 23.9599C161.056 27.455 158.573 29.2559 155.028 29.7115C154.455 29.7827 153.875 29.7827 153.486 29.8112C152.248 29.7898 151.208 29.7471 150.189 29.4624C147.989 28.8431 146.73 27.3197 146.539 25.0276C146.461 24.088 146.574 23.1626 146.744 22.2443C147.437 18.5784 148.145 14.9124 148.845 11.2465C148.902 10.9831 148.958 10.7197 149.015 10.4492C149.078 10.1787 149.213 9.94379 149.418 9.75159C149.751 9.4455 150.14 9.27466 150.578 9.48109C151.045 9.69464 151.109 10.1004 151.024 10.5631C150.621 12.6203 150.218 14.6775 149.828 16.7418C149.439 18.8062 149.064 20.8705 148.689 22.9348C148.626 23.2765 148.597 23.6253 148.59 23.9741C148.569 26.1808 149.659 27.4763 151.809 27.8465C153.083 28.06 154.356 28.0529 155.622 27.8323C157.639 27.4763 159.054 26.3374 159.91 24.4653C160.384 23.426 160.61 22.3298 160.815 21.2193C161.353 18.3933 161.898 15.5673 162.421 12.7413C162.499 12.3498 162.577 11.9725 162.874 11.6949C163.192 11.3888 163.56 11.1753 164.02 11.3746C164.48 11.581 164.628 11.9654 164.551 12.4281C164.388 13.3891 164.204 14.3429 164.02 15.2968C163.581 17.5462 163.15 19.7956 162.69 22.045C162.563 22.6928 162.393 23.3334 162.188 23.9599Z" fill="#D09D2A"/>
<path d="M164.43 42.4893C162.067 43.009 160.242 45.5004 160.362 48.0416C160.44 49.7073 161.501 51.0242 163.114 51.3517C164.409 51.6222 165.654 51.43 166.779 50.6897C166.913 50.6043 167.04 50.5188 167.154 50.4192C167.352 50.2341 167.613 50.049 167.366 49.7429C167.175 49.4938 166.956 49.629 166.757 49.7572C166.559 49.8782 166.368 50.0206 166.17 50.1273C165.442 50.5331 164.656 50.7324 163.829 50.6612C162.343 50.5402 161.317 49.4511 161.282 47.9918C161.268 47.3156 161.31 47.2444 161.982 47.2301C162.909 47.2159 163.836 47.2301 164.762 47.2301C165.725 47.2301 166.694 47.2088 167.656 47.2301C168.236 47.2444 168.47 46.9596 168.554 46.4115C168.965 43.7421 167.048 41.9127 164.43 42.4893ZM167.741 46.0058C167.67 46.4258 167.408 46.4756 167.076 46.4685H161.982C161.635 46.4685 161.508 46.3332 161.621 45.9631C162.117 44.3472 163.843 43.1086 165.505 43.194C166.956 43.2723 167.981 44.575 167.741 46.0058Z" fill="black"/>
<path d="M160.972 5.35982C160.816 4.87577 161.071 4.53408 161.41 4.24935C161.552 4.13545 161.75 4.07139 161.927 4.00732C162.033 3.97173 162.153 3.98597 162.273 3.97885C162.882 3.91478 163.61 4.21376 164.07 3.82936C164.53 3.44497 164.438 2.69042 164.565 2.08536C164.665 1.60131 164.898 1.2098 165.344 0.989131C166.002 0.668804 166.617 1.04608 166.638 1.8291C166.546 2.31315 166.461 2.85415 166.355 3.38091C166.27 3.77954 166.384 3.97173 166.808 3.96461C167.31 3.96461 167.813 3.97173 168.315 3.98597C168.697 4.0002 168.987 4.17816 169.114 4.54832C169.235 4.92559 169.065 5.23168 168.824 5.5093C168.485 5.90081 168.025 5.91505 167.558 5.9364C167.02 5.95776 166.405 5.72997 165.973 6.06453C165.542 6.40622 165.69 7.08246 165.549 7.59499C165.443 7.97226 165.386 8.35665 165.096 8.64851C164.749 8.99019 164.183 9.10408 163.823 8.88341C163.441 8.64139 163.384 8.27123 163.476 7.85837C163.575 7.40279 163.646 6.94009 163.752 6.48452C163.851 6.05742 163.667 5.92217 163.271 5.92929C162.811 5.9364 162.344 5.92217 161.884 5.92217C161.467 5.92217 161.113 5.80115 160.972 5.35982Z" fill="#D09D2A"/>
<path d="M176.584 42.7691C176.683 43.1108 176.45 43.2603 176.181 43.3599C176.075 43.3955 175.954 43.4169 175.841 43.4382C173.719 43.8297 172.488 45.225 171.773 47.154C171.462 47.9869 171.278 48.8624 171.045 49.7238C170.96 50.0227 170.882 50.3217 170.797 50.6207C170.705 50.9624 170.592 51.3681 170.146 51.2329C169.729 51.0976 169.941 50.7132 170.019 50.4285C170.535 48.4425 171.059 46.4635 171.582 44.4775C171.696 44.0647 171.802 43.6518 171.922 43.246C171.979 43.061 172.056 42.883 172.155 42.7193C172.24 42.584 172.382 42.5271 172.552 42.5769C172.728 42.6339 172.764 42.7833 172.813 42.9471C172.714 43.3528 172.608 43.7657 172.516 44.1785C172.495 44.2853 172.53 44.3992 172.537 44.5131C172.629 44.4562 172.743 44.4277 172.806 44.3494C173.245 43.8511 173.733 43.4169 174.292 43.0681C174.822 42.7406 175.381 42.4915 176.025 42.4844C176.252 42.4844 176.506 42.4844 176.584 42.7691Z" fill="black"/>
<path d="M180.954 13.0057C180.487 13.4328 180.056 13.4328 179.553 12.8847C177.622 10.7563 175.217 10.7207 172.705 11.3115C171.354 11.6318 170.371 12.4861 169.989 13.9097C169.706 14.949 169.946 15.8246 170.746 16.5435C171.368 17.0988 172.104 17.4404 172.854 17.7537C173.851 18.1736 174.87 18.5438 175.868 18.9495C176.766 19.3197 177.629 19.7468 178.393 20.3661C179.617 21.3698 180.063 22.6653 179.773 24.21C179.369 26.2957 178.209 27.8119 176.334 28.7729C174.813 29.5559 173.186 29.8051 171.064 29.7979C169.699 29.7908 167.972 29.4705 166.416 28.481C165.822 28.1038 165.305 27.6411 164.916 27.0431C164.746 26.7726 164.626 26.495 164.704 26.1676C164.796 25.7476 165.065 25.4842 165.44 25.3347C165.864 25.1639 166.19 25.349 166.451 25.6835C167.265 26.737 168.312 27.4346 169.614 27.698C171.347 28.0468 173.08 28.0539 174.771 27.5129C176.037 27.1072 177.028 26.3313 177.523 25.0286C178.061 23.6192 177.742 22.5443 176.525 21.6616C175.924 21.2274 175.245 20.9356 174.573 20.6508C173.929 20.3803 173.264 20.1668 172.627 19.8963C171.913 19.5973 171.191 19.3055 170.512 18.9495C167.435 17.3194 166.876 14.0806 169.196 11.4539C170.102 10.4288 171.255 9.81666 172.55 9.46786C174.262 9.01229 175.988 8.99093 177.714 9.4038C178.782 9.66006 179.744 10.1512 180.53 10.9342C180.721 11.1264 180.912 11.3258 181.067 11.5464C181.442 12.0874 181.4 12.5928 180.954 13.0057Z" fill="#D09D2A"/>
</g>
<defs>
<clipPath id="clip0_8041_7341">
<rect width="181.314" height="54" fill="white" transform="translate(0.00976562)"/>
</clipPath>
</defs>
</svg>
